%TF.GenerationSoftware,KiCad,Pcbnew,8.0.8*%
%TF.CreationDate,2025-03-23T13:12:37+08:00*%
%TF.ProjectId,trafficlight,74726166-6669-4636-9c69-6768742e6b69,rev?*%
%TF.SameCoordinates,Original*%
%TF.FileFunction,Copper,L2,Bot*%
%TF.FilePolarity,Positive*%
%FSLAX46Y46*%
G04 Gerber Fmt 4.6, Leading zero omitted, Abs format (unit mm)*
G04 Created by KiCad (PCBNEW 8.0.8) date 2025-03-23 13:12:37*
%MOMM*%
%LPD*%
G01*
G04 APERTURE LIST*
G04 Aperture macros list*
%AMRoundRect*
0 Rectangle with rounded corners*
0 $1 Rounding radius*
0 $2 $3 $4 $5 $6 $7 $8 $9 X,Y pos of 4 corners*
0 Add a 4 corners polygon primitive as box body*
4,1,4,$2,$3,$4,$5,$6,$7,$8,$9,$2,$3,0*
0 Add four circle primitives for the rounded corners*
1,1,$1+$1,$2,$3*
1,1,$1+$1,$4,$5*
1,1,$1+$1,$6,$7*
1,1,$1+$1,$8,$9*
0 Add four rect primitives between the rounded corners*
20,1,$1+$1,$2,$3,$4,$5,0*
20,1,$1+$1,$4,$5,$6,$7,0*
20,1,$1+$1,$6,$7,$8,$9,0*
20,1,$1+$1,$8,$9,$2,$3,0*%
G04 Aperture macros list end*
%TA.AperFunction,SMDPad,CuDef*%
%ADD10RoundRect,0.250000X0.412500X0.650000X-0.412500X0.650000X-0.412500X-0.650000X0.412500X-0.650000X0*%
%TD*%
%TA.AperFunction,ComponentPad*%
%ADD11R,1.800000X1.800000*%
%TD*%
%TA.AperFunction,ComponentPad*%
%ADD12C,1.800000*%
%TD*%
%TA.AperFunction,ComponentPad*%
%ADD13R,1.700000X1.700000*%
%TD*%
%TA.AperFunction,ComponentPad*%
%ADD14O,1.700000X1.700000*%
%TD*%
%TA.AperFunction,ComponentPad*%
%ADD15R,1.600000X1.600000*%
%TD*%
%TA.AperFunction,ComponentPad*%
%ADD16O,1.600000X1.600000*%
%TD*%
%TA.AperFunction,SMDPad,CuDef*%
%ADD17RoundRect,0.237500X0.237500X-0.250000X0.237500X0.250000X-0.237500X0.250000X-0.237500X-0.250000X0*%
%TD*%
%TA.AperFunction,SMDPad,CuDef*%
%ADD18RoundRect,0.250000X0.650000X-1.500000X0.650000X1.500000X-0.650000X1.500000X-0.650000X-1.500000X0*%
%TD*%
%TA.AperFunction,SMDPad,CuDef*%
%ADD19RoundRect,0.237500X-0.250000X-0.237500X0.250000X-0.237500X0.250000X0.237500X-0.250000X0.237500X0*%
%TD*%
%TA.AperFunction,SMDPad,CuDef*%
%ADD20RoundRect,0.250000X-0.650000X1.500000X-0.650000X-1.500000X0.650000X-1.500000X0.650000X1.500000X0*%
%TD*%
%TA.AperFunction,SMDPad,CuDef*%
%ADD21RoundRect,0.150000X-0.825000X-0.150000X0.825000X-0.150000X0.825000X0.150000X-0.825000X0.150000X0*%
%TD*%
%TA.AperFunction,SMDPad,CuDef*%
%ADD22RoundRect,0.237500X-0.237500X0.250000X-0.237500X-0.250000X0.237500X-0.250000X0.237500X0.250000X0*%
%TD*%
%TA.AperFunction,ViaPad*%
%ADD23C,0.600000*%
%TD*%
%TA.AperFunction,Conductor*%
%ADD24C,0.200000*%
%TD*%
G04 APERTURE END LIST*
D10*
%TO.P,C1,1*%
%TO.N,Net-(U1-THR)*%
X154101800Y-97993200D03*
%TO.P,C1,2*%
%TO.N,GND*%
X150976800Y-97993200D03*
%TD*%
D11*
%TO.P,D2,1,K*%
%TO.N,GND*%
X145395200Y-100411800D03*
D12*
%TO.P,D2,2,A*%
%TO.N,Net-(D2-A)*%
X142855200Y-100411800D03*
%TD*%
D11*
%TO.P,D1,1,K*%
%TO.N,GND*%
X145471400Y-80193400D03*
D12*
%TO.P,D1,2,A*%
%TO.N,Net-(D1-A)*%
X142931400Y-80193400D03*
%TD*%
D11*
%TO.P,D3,1,K*%
%TO.N,GND*%
X144861800Y-120858800D03*
D12*
%TO.P,D3,2,A*%
%TO.N,Net-(D3-A)*%
X142321800Y-120858800D03*
%TD*%
D13*
%TO.P,J1,1,Pin_1*%
%TO.N,GND*%
X156977600Y-93350600D03*
D14*
%TO.P,J1,2,Pin_2*%
%TO.N,/VBus*%
X156977600Y-90810600D03*
%TD*%
D15*
%TO.P,U2,1,Q5*%
%TO.N,unconnected-(U2-Q5-Pad1)*%
X148808800Y-126914400D03*
D16*
%TO.P,U2,2,Q1*%
%TO.N,Net-(D4-A)*%
X148808800Y-124374400D03*
%TO.P,U2,3,Q0*%
%TO.N,Net-(D4-K)*%
X148808800Y-121834400D03*
%TO.P,U2,4,Q2*%
%TO.N,Net-(U2-Q2)*%
X148808800Y-119294400D03*
%TO.P,U2,5,Q6*%
%TO.N,unconnected-(U2-Q6-Pad5)*%
X148808800Y-116754400D03*
%TO.P,U2,6,Q7*%
%TO.N,unconnected-(U2-Q7-Pad6)*%
X148808800Y-114214400D03*
%TO.P,U2,7,Q3*%
%TO.N,Net-(D7-K)*%
X148808800Y-111674400D03*
%TO.P,U2,8,VSS*%
%TO.N,GND*%
X148808800Y-109134400D03*
%TO.P,U2,9,Q8*%
%TO.N,unconnected-(U2-Q8-Pad9)*%
X156428800Y-109134400D03*
%TO.P,U2,10,Q4*%
%TO.N,Net-(U2-Q4)*%
X156428800Y-111674400D03*
%TO.P,U2,11,Q9*%
%TO.N,unconnected-(U2-Q9-Pad11)*%
X156428800Y-114214400D03*
%TO.P,U2,12,Cout*%
%TO.N,unconnected-(U2-Cout-Pad12)*%
X156428800Y-116754400D03*
%TO.P,U2,13,CKEN*%
%TO.N,GND*%
X156428800Y-119294400D03*
%TO.P,U2,14,CLK*%
%TO.N,Net-(U1-Q)*%
X156428800Y-121834400D03*
%TO.P,U2,15,Reset*%
%TO.N,Net-(U2-Q4)*%
X156428800Y-124374400D03*
%TO.P,U2,16,VDD*%
%TO.N,/VBus*%
X156428800Y-126914400D03*
%TD*%
D17*
%TO.P,R2,2*%
%TO.N,Net-(U1-THR)*%
X157561800Y-101404300D03*
%TO.P,R2,1*%
%TO.N,Net-(U1-DIS)*%
X157561800Y-103229300D03*
%TD*%
D18*
%TO.P,D7,1,K*%
%TO.N,Net-(D7-K)*%
X138582400Y-127620400D03*
%TO.P,D7,2,A*%
%TO.N,Net-(D4-A)*%
X138582400Y-122620400D03*
%TD*%
D19*
%TO.P,R3,1*%
%TO.N,Net-(D1-A)*%
X134141200Y-109474000D03*
%TO.P,R3,2*%
%TO.N,Net-(D4-K)*%
X135966200Y-109474000D03*
%TD*%
D20*
%TO.P,D5,1,K*%
%TO.N,Net-(D1-A)*%
X131241800Y-112943000D03*
%TO.P,D5,2,A*%
%TO.N,Net-(D5-A)*%
X131241800Y-117943000D03*
%TD*%
D21*
%TO.P,U1,1,GND*%
%TO.N,GND*%
X150083000Y-104196400D03*
%TO.P,U1,2,TR*%
%TO.N,Net-(U1-THR)*%
X150083000Y-102926400D03*
%TO.P,U1,3,Q*%
%TO.N,Net-(U1-Q)*%
X150083000Y-101656400D03*
%TO.P,U1,4,R*%
%TO.N,/VBus*%
X150083000Y-100386400D03*
%TO.P,U1,5,CV*%
%TO.N,unconnected-(U1-CV-Pad5)*%
X155033000Y-100386400D03*
%TO.P,U1,6,THR*%
%TO.N,Net-(U1-THR)*%
X155033000Y-101656400D03*
%TO.P,U1,7,DIS*%
%TO.N,Net-(U1-DIS)*%
X155033000Y-102926400D03*
%TO.P,U1,8,VCC*%
%TO.N,/VBus*%
X155033000Y-104196400D03*
%TD*%
D19*
%TO.P,R4,1*%
%TO.N,Net-(D2-A)*%
X134063100Y-127361200D03*
%TO.P,R4,2*%
%TO.N,Net-(D7-K)*%
X135888100Y-127361200D03*
%TD*%
D22*
%TO.P,R1,2*%
%TO.N,Net-(U1-DIS)*%
X157561800Y-98176600D03*
%TO.P,R1,1*%
%TO.N,/VBus*%
X157561800Y-96351600D03*
%TD*%
D19*
%TO.P,R6,1*%
%TO.N,Net-(D5-A)*%
X133936100Y-118033800D03*
%TO.P,R6,2*%
%TO.N,Net-(D4-A)*%
X135761100Y-118033800D03*
%TD*%
D20*
%TO.P,D4,1,K*%
%TO.N,Net-(D4-K)*%
X138633200Y-112943000D03*
%TO.P,D4,2,A*%
%TO.N,Net-(D4-A)*%
X138633200Y-117943000D03*
%TD*%
D18*
%TO.P,D6,1,K*%
%TO.N,Net-(D2-A)*%
X131292600Y-127377200D03*
%TO.P,D6,2,A*%
%TO.N,Net-(D5-A)*%
X131292600Y-122377200D03*
%TD*%
D23*
%TO.N,Net-(D2-A)*%
X131292600Y-127377200D03*
%TO.N,Net-(D4-A)*%
X138582400Y-122620400D03*
%TO.N,Net-(D4-K)*%
X138633200Y-112943000D03*
%TO.N,/VBus*%
X155033000Y-104196400D03*
X150083000Y-100386400D03*
X157561800Y-96351600D03*
%TO.N,Net-(U1-DIS)*%
X157561800Y-103229300D03*
X157561800Y-98176600D03*
%TD*%
D24*
%TO.N,Net-(U1-THR)*%
X153345400Y-99689400D02*
X153524400Y-99510400D01*
X153345400Y-101300800D02*
X153345400Y-99689400D01*
X148798800Y-102926400D02*
X150083000Y-102926400D01*
X148443200Y-100056200D02*
X148443200Y-102570800D01*
X148443200Y-102570800D02*
X148798800Y-102926400D01*
X148989000Y-99510400D02*
X148443200Y-100056200D01*
X153524400Y-99510400D02*
X148989000Y-99510400D01*
X154101800Y-98933000D02*
X153524400Y-99510400D01*
X154101800Y-97993200D02*
X154101800Y-98933000D01*
%TO.N,GND*%
X147813800Y-97993200D02*
X150976800Y-97993200D01*
X145395200Y-100411800D02*
X147813800Y-97993200D01*
X150976800Y-96343000D02*
X153969200Y-93350600D01*
X150976800Y-97993200D02*
X150976800Y-96343000D01*
X153969200Y-93350600D02*
X156977600Y-93350600D01*
%TO.N,Net-(U1-THR)*%
X153701000Y-101656400D02*
X155033000Y-101656400D01*
X156418800Y-101656400D02*
X155033000Y-101656400D01*
X157561800Y-101404300D02*
X156670900Y-101404300D01*
X153345400Y-101300800D02*
X153701000Y-101656400D01*
X156670900Y-101404300D02*
X156418800Y-101656400D01*
%TO.N,GND*%
X145395200Y-80269600D02*
X145471400Y-80193400D01*
X144861800Y-120858800D02*
X144861800Y-111537000D01*
X148087600Y-104755200D02*
X148087600Y-106863400D01*
X148036800Y-104704400D02*
X145395200Y-102062800D01*
X145395200Y-102062800D02*
X145395200Y-100411800D01*
X145395200Y-100411800D02*
X145395200Y-80269600D01*
X147264400Y-109134400D02*
X148808800Y-109134400D01*
X148138400Y-104704400D02*
X148087600Y-104755200D01*
X148138400Y-104704400D02*
X148036800Y-104704400D01*
X148646400Y-104196400D02*
X148138400Y-104704400D01*
X148808800Y-107584600D02*
X148808800Y-109134400D01*
X150083000Y-104196400D02*
X148646400Y-104196400D01*
X144861800Y-111537000D02*
X147264400Y-109134400D01*
X148087600Y-106863400D02*
X148808800Y-107584600D01*
%TO.N,Net-(D1-A)*%
X131241800Y-110667800D02*
X132435600Y-109474000D01*
X140061200Y-80193400D02*
X142931400Y-80193400D01*
X131241800Y-112943000D02*
X131241800Y-110667800D01*
X134141200Y-86113400D02*
X140061200Y-80193400D01*
X134141200Y-109474000D02*
X134141200Y-86113400D01*
X132435600Y-109474000D02*
X134141200Y-109474000D01*
%TO.N,Net-(D2-A)*%
X134063100Y-127361200D02*
X131308600Y-127361200D01*
X131308600Y-127361200D02*
X131292600Y-127377200D01*
%TO.N,Net-(D4-A)*%
X138542400Y-118033800D02*
X138633200Y-117943000D01*
X138582400Y-117993800D02*
X138633200Y-117943000D01*
X135761100Y-118033800D02*
X138542400Y-118033800D01*
X138582400Y-122620400D02*
X138582400Y-117993800D01*
%TO.N,Net-(D4-K)*%
X137668000Y-109474000D02*
X138633200Y-110439200D01*
X138633200Y-110439200D02*
X138633200Y-112943000D01*
X135966200Y-109474000D02*
X137668000Y-109474000D01*
%TO.N,Net-(D5-A)*%
X131292600Y-122377200D02*
X131292600Y-117993800D01*
X131241800Y-117943000D02*
X133845300Y-117943000D01*
X133845300Y-117943000D02*
X133936100Y-118033800D01*
X131292600Y-117993800D02*
X131241800Y-117943000D01*
%TO.N,/VBus*%
X156428800Y-126914400D02*
X158247600Y-125095600D01*
X156723600Y-104196400D02*
X155033000Y-104196400D01*
X158247600Y-105720400D02*
X156723600Y-104196400D01*
X155033000Y-104196400D02*
X154920200Y-104196400D01*
X158247600Y-125095600D02*
X158247600Y-105720400D01*
%TO.N,Net-(U1-DIS)*%
X156696300Y-103229300D02*
X157561800Y-103229300D01*
X155033000Y-102926400D02*
X156393400Y-102926400D01*
X156393400Y-102926400D02*
X156696300Y-103229300D01*
%TO.N,Net-(U1-Q)*%
X152507200Y-119919000D02*
X152507200Y-102520000D01*
X152507200Y-102520000D02*
X151643600Y-101656400D01*
X151643600Y-101656400D02*
X150083000Y-101656400D01*
X156428800Y-121834400D02*
X154422600Y-121834400D01*
X154422600Y-121834400D02*
X152507200Y-119919000D01*
%TO.N,Net-(U2-Q4)*%
X156428800Y-124374400D02*
X157663400Y-123139800D01*
X157663400Y-112909000D02*
X156428800Y-111674400D01*
X157663400Y-123139800D02*
X157663400Y-112909000D01*
%TO.N,Net-(D7-K)*%
X148808800Y-111674400D02*
X147721600Y-111674400D01*
X147721600Y-111674400D02*
X146868400Y-112527600D01*
X138582400Y-127620400D02*
X136147300Y-127620400D01*
X146868400Y-125837200D02*
X145085200Y-127620400D01*
X136147300Y-127620400D02*
X135888100Y-127361200D01*
X145085200Y-127620400D02*
X138582400Y-127620400D01*
X146868400Y-112527600D02*
X146868400Y-125837200D01*
%TD*%
M02*
