%TF.GenerationSoftware,KiCad,Pcbnew,8.0.8*%
%TF.CreationDate,2025-03-23T13:12:37+08:00*%
%TF.ProjectId,trafficlight,74726166-6669-4636-9c69-6768742e6b69,rev?*%
%TF.SameCoordinates,Original*%
%TF.FileFunction,Soldermask,Bot*%
%TF.FilePolarity,Negative*%
%FSLAX46Y46*%
G04 Gerber Fmt 4.6, Leading zero omitted, Abs format (unit mm)*
G04 Created by KiCad (PCBNEW 8.0.8) date 2025-03-23 13:12:37*
%MOMM*%
%LPD*%
G01*
G04 APERTURE LIST*
G04 Aperture macros list*
%AMRoundRect*
0 Rectangle with rounded corners*
0 $1 Rounding radius*
0 $2 $3 $4 $5 $6 $7 $8 $9 X,Y pos of 4 corners*
0 Add a 4 corners polygon primitive as box body*
4,1,4,$2,$3,$4,$5,$6,$7,$8,$9,$2,$3,0*
0 Add four circle primitives for the rounded corners*
1,1,$1+$1,$2,$3*
1,1,$1+$1,$4,$5*
1,1,$1+$1,$6,$7*
1,1,$1+$1,$8,$9*
0 Add four rect primitives between the rounded corners*
20,1,$1+$1,$2,$3,$4,$5,0*
20,1,$1+$1,$4,$5,$6,$7,0*
20,1,$1+$1,$6,$7,$8,$9,0*
20,1,$1+$1,$8,$9,$2,$3,0*%
G04 Aperture macros list end*
%ADD10RoundRect,0.250000X0.412500X0.650000X-0.412500X0.650000X-0.412500X-0.650000X0.412500X-0.650000X0*%
%ADD11R,1.800000X1.800000*%
%ADD12C,1.800000*%
%ADD13R,1.700000X1.700000*%
%ADD14O,1.700000X1.700000*%
%ADD15R,1.600000X1.600000*%
%ADD16O,1.600000X1.600000*%
%ADD17RoundRect,0.237500X0.237500X-0.250000X0.237500X0.250000X-0.237500X0.250000X-0.237500X-0.250000X0*%
%ADD18RoundRect,0.250000X0.650000X-1.500000X0.650000X1.500000X-0.650000X1.500000X-0.650000X-1.500000X0*%
%ADD19RoundRect,0.237500X-0.250000X-0.237500X0.250000X-0.237500X0.250000X0.237500X-0.250000X0.237500X0*%
%ADD20RoundRect,0.250000X-0.650000X1.500000X-0.650000X-1.500000X0.650000X-1.500000X0.650000X1.500000X0*%
%ADD21RoundRect,0.150000X-0.825000X-0.150000X0.825000X-0.150000X0.825000X0.150000X-0.825000X0.150000X0*%
%ADD22RoundRect,0.237500X-0.237500X0.250000X-0.237500X-0.250000X0.237500X-0.250000X0.237500X0.250000X0*%
G04 APERTURE END LIST*
D10*
%TO.C,C1*%
X154101800Y-97993200D03*
X150976800Y-97993200D03*
%TD*%
D11*
%TO.C,D2*%
X145395200Y-100411800D03*
D12*
X142855200Y-100411800D03*
%TD*%
D11*
%TO.C,D1*%
X145471400Y-80193400D03*
D12*
X142931400Y-80193400D03*
%TD*%
D11*
%TO.C,D3*%
X144861800Y-120858800D03*
D12*
X142321800Y-120858800D03*
%TD*%
D13*
%TO.C,J1*%
X156977600Y-93350600D03*
D14*
X156977600Y-90810600D03*
%TD*%
D15*
%TO.C,U2*%
X148808800Y-126914400D03*
D16*
X148808800Y-124374400D03*
X148808800Y-121834400D03*
X148808800Y-119294400D03*
X148808800Y-116754400D03*
X148808800Y-114214400D03*
X148808800Y-111674400D03*
X148808800Y-109134400D03*
X156428800Y-109134400D03*
X156428800Y-111674400D03*
X156428800Y-114214400D03*
X156428800Y-116754400D03*
X156428800Y-119294400D03*
X156428800Y-121834400D03*
X156428800Y-124374400D03*
X156428800Y-126914400D03*
%TD*%
D17*
%TO.C,R2*%
X157561800Y-101404300D03*
X157561800Y-103229300D03*
%TD*%
D18*
%TO.C,D7*%
X138582400Y-127620400D03*
X138582400Y-122620400D03*
%TD*%
D19*
%TO.C,R3*%
X134141200Y-109474000D03*
X135966200Y-109474000D03*
%TD*%
D20*
%TO.C,D5*%
X131241800Y-112943000D03*
X131241800Y-117943000D03*
%TD*%
D21*
%TO.C,U1*%
X150083000Y-104196400D03*
X150083000Y-102926400D03*
X150083000Y-101656400D03*
X150083000Y-100386400D03*
X155033000Y-100386400D03*
X155033000Y-101656400D03*
X155033000Y-102926400D03*
X155033000Y-104196400D03*
%TD*%
D19*
%TO.C,R4*%
X134063100Y-127361200D03*
X135888100Y-127361200D03*
%TD*%
D22*
%TO.C,R1*%
X157561800Y-98176600D03*
X157561800Y-96351600D03*
%TD*%
D19*
%TO.C,R6*%
X133936100Y-118033800D03*
X135761100Y-118033800D03*
%TD*%
D20*
%TO.C,D4*%
X138633200Y-112943000D03*
X138633200Y-117943000D03*
%TD*%
D18*
%TO.C,D6*%
X131292600Y-127377200D03*
X131292600Y-122377200D03*
%TD*%
M02*
