M48
; DRILL file {KiCad 8.0.8} date 2025-03-24T19:05:03+0800
; FORMAT={-:-/ absolute / inch / decimal}
; #@! TF.CreationDate,2025-03-24T19:05:03+08:00
; #@! TF.GenerationSoftware,Kicad,Pcbnew,8.0.8
; #@! TF.FileFunction,Plated,1,2,PTH
FMAT,2
INCH
; #@! TA.AperFunction,Plated,PTH,ViaDrill
T1C0.0118
; #@! TA.AperFunction,Plated,PTH,ComponentDrill
T2C0.0315
; #@! TA.AperFunction,Plated,PTH,ComponentDrill
T3C0.0354
; #@! TA.AperFunction,Plated,PTH,ComponentDrill
T4C0.0394
%
G90
G05
T1
X5.169Y-5.0149
X5.456Y-4.8276
X5.458Y-4.4466
X5.9088Y-3.9522
X6.1037Y-4.1022
X6.2032Y-3.7934
X6.2032Y-3.8652
X6.2032Y-4.0641
T2
X5.8586Y-4.2966
X5.8586Y-4.3966
X5.8586Y-4.4966
X5.8586Y-4.5966
X5.8586Y-4.6966
X5.8586Y-4.7966
X5.8586Y-4.8966
X5.8586Y-4.9966
X6.1586Y-4.2966
X6.1586Y-4.3966
X6.1586Y-4.4966
X6.1586Y-4.5966
X6.1586Y-4.6966
X6.1586Y-4.7966
X6.1586Y-4.8966
X6.1586Y-4.9966
T3
X5.6032Y-4.7582
X5.6242Y-3.9532
X5.6272Y-3.1572
X5.7032Y-4.7582
X5.7242Y-3.9532
X5.7272Y-3.1572
T4
X6.1802Y-3.5752
X6.1802Y-3.6752
M30
