%TF.GenerationSoftware,KiCad,Pcbnew,8.0.8*%
%TF.CreationDate,2025-03-24T19:05:03+08:00*%
%TF.ProjectId,trafficlight,74726166-6669-4636-9c69-6768742e6b69,rev?*%
%TF.SameCoordinates,Original*%
%TF.FileFunction,Drillmap*%
%TF.FilePolarity,Positive*%
%FSLAX45Y45*%
G04 Gerber Fmt 4.5, Leading zero omitted, Abs format (unit mm)*
G04 Created by KiCad (PCBNEW 8.0.8) date 2025-03-24 19:05:03*
%MOMM*%
%LPD*%
G01*
G04 APERTURE LIST*
%ADD10C,0.200000*%
G04 APERTURE END LIST*
D10*
X12903760Y-7038900D02*
X15903760Y-7038900D01*
X15903760Y-13038900D01*
X12903760Y-13038900D01*
X12903760Y-7038900D01*
X13154537Y-13360384D02*
X13154537Y-13160384D01*
X13154537Y-13160384D02*
X13202156Y-13160384D01*
X13202156Y-13160384D02*
X13230727Y-13169908D01*
X13230727Y-13169908D02*
X13249775Y-13188955D01*
X13249775Y-13188955D02*
X13259299Y-13208003D01*
X13259299Y-13208003D02*
X13268822Y-13246098D01*
X13268822Y-13246098D02*
X13268822Y-13274669D01*
X13268822Y-13274669D02*
X13259299Y-13312765D01*
X13259299Y-13312765D02*
X13249775Y-13331812D01*
X13249775Y-13331812D02*
X13230727Y-13350860D01*
X13230727Y-13350860D02*
X13202156Y-13360384D01*
X13202156Y-13360384D02*
X13154537Y-13360384D01*
X13354537Y-13360384D02*
X13354537Y-13227050D01*
X13354537Y-13265146D02*
X13364061Y-13246098D01*
X13364061Y-13246098D02*
X13373584Y-13236574D01*
X13373584Y-13236574D02*
X13392632Y-13227050D01*
X13392632Y-13227050D02*
X13411680Y-13227050D01*
X13478346Y-13360384D02*
X13478346Y-13227050D01*
X13478346Y-13160384D02*
X13468822Y-13169908D01*
X13468822Y-13169908D02*
X13478346Y-13179431D01*
X13478346Y-13179431D02*
X13487870Y-13169908D01*
X13487870Y-13169908D02*
X13478346Y-13160384D01*
X13478346Y-13160384D02*
X13478346Y-13179431D01*
X13602156Y-13360384D02*
X13583108Y-13350860D01*
X13583108Y-13350860D02*
X13573584Y-13331812D01*
X13573584Y-13331812D02*
X13573584Y-13160384D01*
X13706918Y-13360384D02*
X13687870Y-13350860D01*
X13687870Y-13350860D02*
X13678346Y-13331812D01*
X13678346Y-13331812D02*
X13678346Y-13160384D01*
X13935489Y-13360384D02*
X13935489Y-13160384D01*
X13935489Y-13160384D02*
X14002156Y-13303241D01*
X14002156Y-13303241D02*
X14068822Y-13160384D01*
X14068822Y-13160384D02*
X14068822Y-13360384D01*
X14249775Y-13360384D02*
X14249775Y-13255622D01*
X14249775Y-13255622D02*
X14240251Y-13236574D01*
X14240251Y-13236574D02*
X14221203Y-13227050D01*
X14221203Y-13227050D02*
X14183108Y-13227050D01*
X14183108Y-13227050D02*
X14164061Y-13236574D01*
X14249775Y-13350860D02*
X14230727Y-13360384D01*
X14230727Y-13360384D02*
X14183108Y-13360384D01*
X14183108Y-13360384D02*
X14164061Y-13350860D01*
X14164061Y-13350860D02*
X14154537Y-13331812D01*
X14154537Y-13331812D02*
X14154537Y-13312765D01*
X14154537Y-13312765D02*
X14164061Y-13293717D01*
X14164061Y-13293717D02*
X14183108Y-13284193D01*
X14183108Y-13284193D02*
X14230727Y-13284193D01*
X14230727Y-13284193D02*
X14249775Y-13274669D01*
X14345013Y-13227050D02*
X14345013Y-13427050D01*
X14345013Y-13236574D02*
X14364061Y-13227050D01*
X14364061Y-13227050D02*
X14402156Y-13227050D01*
X14402156Y-13227050D02*
X14421203Y-13236574D01*
X14421203Y-13236574D02*
X14430727Y-13246098D01*
X14430727Y-13246098D02*
X14440251Y-13265146D01*
X14440251Y-13265146D02*
X14440251Y-13322288D01*
X14440251Y-13322288D02*
X14430727Y-13341336D01*
X14430727Y-13341336D02*
X14421203Y-13350860D01*
X14421203Y-13350860D02*
X14402156Y-13360384D01*
X14402156Y-13360384D02*
X14364061Y-13360384D01*
X14364061Y-13360384D02*
X14345013Y-13350860D01*
X14525965Y-13341336D02*
X14535489Y-13350860D01*
X14535489Y-13350860D02*
X14525965Y-13360384D01*
X14525965Y-13360384D02*
X14516442Y-13350860D01*
X14516442Y-13350860D02*
X14525965Y-13341336D01*
X14525965Y-13341336D02*
X14525965Y-13360384D01*
X14525965Y-13236574D02*
X14535489Y-13246098D01*
X14535489Y-13246098D02*
X14525965Y-13255622D01*
X14525965Y-13255622D02*
X14516442Y-13246098D01*
X14516442Y-13246098D02*
X14525965Y-13236574D01*
X14525965Y-13236574D02*
X14525965Y-13255622D01*
M02*
